<svg width="340" height="91" viewBox="0 0 340 91" fill="none" xmlns="http://www.w3.org/2000/svg">
<path d="M45.6187 90.5973V73.1508C64.0867 73.1508 78.4147 54.8448 71.3317 35.4048C70.0187 31.8464 67.9472 28.6162 65.2609 25.9384C62.5746 23.2607 59.3378 21.1995 55.7752 19.8978C36.3397 12.8643 18.0247 27.1428 18.0247 45.6108H0.632172C0.632172 16.1763 29.0947 -6.77816 59.9602 2.86534C73.4197 7.09534 84.1837 17.8098 88.3687 31.2738C98.0032 62.1348 75.0487 90.5973 45.6187 90.5973Z" fill="#26E144"/>
<path d="M48.3 27.7587V23H43.7V27.7587C39.6527 28.2755 35.8915 30.1212 33.0063 33.0063C30.1212 35.8914 28.2755 39.6527 27.7587 43.7H23V48.3H27.7587C28.2747 52.3476 30.1202 56.1093 33.0055 58.9945C35.8907 61.8798 39.6524 63.7253 43.7 64.2413V69H48.3V64.2413C52.3478 63.7257 56.1097 61.8803 58.995 58.995C61.8803 56.1096 63.7257 52.3478 64.2413 48.3H69V43.7H64.2413C63.7253 39.6524 61.8798 35.8907 58.9946 33.0055C56.1093 30.1202 52.3476 28.2747 48.3 27.7587ZM46 59.8C38.3893 59.8 32.2 53.6107 32.2 46C32.2 38.3893 38.3893 32.2 46 32.2C53.6107 32.2 59.8 38.3893 59.8 46C59.8 53.6107 53.6107 59.8 46 59.8Z" fill="#282828"/>
<circle cx="46" cy="46" r="7" fill="#282828"/>
<path d="M145.638 34.912C144.406 32.6533 142.712 30.9337 140.556 29.753C138.4 28.5723 135.884 27.982 133.01 27.982C129.827 27.982 127.004 28.7007 124.54 30.138C122.076 31.5753 120.151 33.6287 118.765 36.298C117.379 38.9673 116.686 42.0473 116.686 45.538C116.686 49.1313 117.379 52.2627 118.765 54.932C120.202 57.6013 122.178 59.6547 124.694 61.092C127.209 62.5293 130.135 63.248 133.472 63.248C137.578 63.248 140.941 62.17 143.559 60.014C146.177 57.8067 147.896 54.7523 148.718 50.851H130.238V42.612H159.344V52.006C158.625 55.7533 157.085 59.2183 154.724 62.401C152.362 65.5837 149.308 68.1503 145.561 70.101C141.865 72.0003 137.707 72.95 133.087 72.95C127.902 72.95 123.205 71.795 118.996 69.485C114.838 67.1237 111.552 63.864 109.14 59.706C106.778 55.548 105.598 50.8253 105.598 45.538C105.598 40.2507 106.778 35.528 109.14 31.37C111.552 27.1607 114.838 23.901 118.996 21.591C123.205 19.2297 127.876 18.049 133.01 18.049C139.067 18.049 144.329 19.5377 148.795 22.515C153.261 25.441 156.341 29.5733 158.035 34.912H145.638Z" fill="#282828"/>
<path d="M206.974 50.235C206.974 51.775 206.872 53.161 206.666 54.393H175.481C175.738 57.473 176.816 59.8857 178.715 61.631C180.615 63.3763 182.95 64.249 185.722 64.249C189.726 64.249 192.575 62.5293 194.269 59.09H205.896C204.664 63.1967 202.303 66.5847 198.812 69.254C195.322 71.872 191.035 73.181 185.953 73.181C181.847 73.181 178.151 72.2827 174.865 70.486C171.631 68.638 169.09 66.0457 167.242 62.709C165.446 59.3723 164.547 55.5223 164.547 51.159C164.547 46.7443 165.446 42.8687 167.242 39.532C169.039 36.1953 171.554 33.6287 174.788 31.832C178.022 30.0353 181.744 29.137 185.953 29.137C190.009 29.137 193.628 30.0097 196.81 31.755C200.044 33.5003 202.534 35.99 204.279 39.224C206.076 42.4067 206.974 46.077 206.974 50.235ZM195.809 47.155C195.758 44.383 194.757 42.1757 192.806 40.533C190.856 38.839 188.469 37.992 185.645 37.992C182.976 37.992 180.717 38.8133 178.869 40.456C177.073 42.0473 175.969 44.2803 175.558 47.155H195.809Z" fill="#282828"/>
<path d="M231.167 73.181C227.676 73.181 224.545 72.565 221.773 71.333C219.001 70.0497 216.793 68.33 215.151 66.174C213.559 64.018 212.687 61.631 212.533 59.013H223.39C223.595 60.6557 224.391 62.016 225.777 63.094C227.214 64.172 228.985 64.711 231.09 64.711C233.143 64.711 234.734 64.3003 235.864 63.479C237.044 62.6577 237.635 61.6053 237.635 60.322C237.635 58.936 236.916 57.9093 235.479 57.242C234.093 56.5233 231.86 55.7533 228.78 54.932C225.597 54.162 222.979 53.3663 220.926 52.545C218.924 51.7237 217.178 50.466 215.69 48.772C214.252 47.078 213.534 44.7937 213.534 41.919C213.534 39.5577 214.201 37.4017 215.536 35.451C216.922 33.5003 218.872 31.9603 221.388 30.831C223.954 29.7017 226.957 29.137 230.397 29.137C235.479 29.137 239.534 30.4203 242.563 32.987C245.591 35.5023 247.26 38.916 247.568 43.228H237.25C237.096 41.534 236.377 40.1993 235.094 39.224C233.862 38.1973 232.193 37.684 230.089 37.684C228.138 37.684 226.624 38.0433 225.546 38.762C224.519 39.4807 224.006 40.4817 224.006 41.765C224.006 43.2023 224.724 44.306 226.162 45.076C227.599 45.7947 229.832 46.539 232.861 47.309C235.941 48.079 238.482 48.8747 240.484 49.696C242.486 50.5173 244.205 51.8007 245.643 53.546C247.131 55.24 247.901 57.4987 247.953 60.322C247.953 62.786 247.26 64.9933 245.874 66.944C244.539 68.8947 242.588 70.4347 240.022 71.564C237.506 72.642 234.555 73.181 231.167 73.181Z" fill="#282828"/>
<path d="M275.744 73.181C271.637 73.181 267.941 72.2827 264.656 70.486C261.37 68.638 258.778 66.0457 256.879 62.709C255.031 59.3723 254.107 55.5223 254.107 51.159C254.107 46.7957 255.056 42.9457 256.956 39.609C258.906 36.2723 261.55 33.7057 264.887 31.909C268.223 30.061 271.945 29.137 276.052 29.137C280.158 29.137 283.88 30.061 287.217 31.909C290.553 33.7057 293.171 36.2723 295.071 39.609C297.021 42.9457 297.997 46.7957 297.997 51.159C297.997 55.5223 296.996 59.3723 294.994 62.709C293.043 66.0457 290.374 68.638 286.986 70.486C283.649 72.2827 279.902 73.181 275.744 73.181ZM275.744 63.787C277.694 63.787 279.517 63.325 281.211 62.401C282.956 61.4257 284.342 59.9883 285.369 58.089C286.395 56.1897 286.909 53.8797 286.909 51.159C286.909 47.1037 285.831 43.998 283.675 41.842C281.57 39.6347 278.978 38.531 275.898 38.531C272.818 38.531 270.225 39.6347 268.121 41.842C266.067 43.998 265.041 47.1037 265.041 51.159C265.041 55.2143 266.042 58.3457 268.044 60.553C270.097 62.709 272.664 63.787 275.744 63.787Z" fill="#282828"/>
<path d="M322.228 73.181C318.738 73.181 315.606 72.565 312.834 71.333C310.062 70.0497 307.855 68.33 306.212 66.174C304.621 64.018 303.748 61.631 303.594 59.013H314.451C314.657 60.6557 315.452 62.016 316.838 63.094C318.276 64.172 320.047 64.711 322.151 64.711C324.205 64.711 325.796 64.3003 326.925 63.479C328.106 62.6577 328.696 61.6053 328.696 60.322C328.696 58.936 327.978 57.9093 326.54 57.242C325.154 56.5233 322.921 55.7533 319.841 54.932C316.659 54.162 314.041 53.3663 311.987 52.545C309.985 51.7237 308.24 50.466 306.751 48.772C305.314 47.078 304.595 44.7937 304.595 41.919C304.595 39.5577 305.263 37.4017 306.597 35.451C307.983 33.5003 309.934 31.9603 312.449 30.831C315.016 29.7017 318.019 29.137 321.458 29.137C326.54 29.137 330.596 30.4203 333.624 32.987C336.653 35.5023 338.321 38.916 338.629 43.228H328.311C328.157 41.534 327.439 40.1993 326.155 39.224C324.923 38.1973 323.255 37.684 321.15 37.684C319.2 37.684 317.685 38.0433 316.607 38.762C315.581 39.4807 315.067 40.4817 315.067 41.765C315.067 43.2023 315.786 44.306 317.223 45.076C318.661 45.7947 320.894 46.539 323.922 47.309C327.002 48.079 329.543 48.8747 331.545 49.696C333.547 50.5173 335.267 51.8007 336.704 53.546C338.193 55.24 338.963 57.4987 339.014 60.322C339.014 62.786 338.321 64.9933 336.935 66.944C335.601 68.8947 333.65 70.4347 331.083 71.564C328.568 72.642 325.616 73.181 322.228 73.181Z" fill="#282828"/>
</svg>
